<?xml version="1.0" encoding="utf-8"?>
<!-- Generator: Adobe Illustrator 26.0.1, SVG Export Plug-In . SVG Version: 6.00 Build 0)  -->
<svg version="1.1" xmlns="http://www.w3.org/2000/svg" xmlns:xlink="http://www.w3.org/1999/xlink" x="0px" y="0px"
	 viewBox="0 0 250 250" enable-background="new 0 0 250 250" xml:space="preserve">
<g id="background">
</g>
<g id="text">
</g>
<g id="logo">
	<linearGradient id="SVGID_1_" gradientUnits="userSpaceOnUse" x1="35.45" y1="15.4874" x2="214.5773" y2="194.6146">
		<stop  offset="0" style="stop-color:#285548"/>
		<stop  offset="0.4077" style="stop-color:#265246"/>
		<stop  offset="0.6529" style="stop-color:#1E4A3E"/>
		<stop  offset="0.8544" style="stop-color:#113C31"/>
		<stop  offset="1" style="stop-color:#022C23"/>
	</linearGradient>
	<path fill="url(#SVGID_1_)" d="M62.5,179.18c-19.14-0.16-39.61-3.36-50.7-9.77C2.11,163.79,0,156.84,0,151.99
		c3.12-39.14,12.27-48.83,28.2-62.5C19.84,80.9,14.61,69.1,14.61,56.13c0-26.41,21.48-47.89,47.89-47.89
		c26.48,0,47.97,21.48,47.97,47.89c0,0.7,0,1.48-0.08,2.19c-6.25,1.56-12.11,4.06-17.42,7.34c0.86-3.05,1.41-6.25,1.41-9.53
		c0-17.58-14.3-31.87-31.87-31.87s-31.88,14.3-31.88,31.87s14.3,31.88,31.88,31.88c3.59,0,7.03-0.63,10.23-1.64
		c-3.2,5.31-5.63,11.25-7.03,17.5c-1.09,0.16-2.11,0.16-3.2,0.16c-7.58,0-14.84-1.8-21.25-5l-2.5,2.11
		c-13.59,11.56-20.47,17.34-23.12,51.48c0,0.23,1.25,1.72,3.98,3.28c8.83,5.08,25.86,7.66,42.89,7.66V179.18z M62.5,30.27
		c-2.11,0-3.91,1.72-3.91,3.91c0,2.11,1.8,3.91,3.91,3.91c9.14,0,16.56,7.42,16.56,16.48c0,2.19,1.72,3.91,3.91,3.91
		c2.11,0,3.91-1.72,3.91-3.91C86.87,41.13,75.94,30.27,62.5,30.27z M221.8,89.49c8.36-8.59,13.59-20.39,13.59-33.36
		c0-26.41-21.48-47.89-47.89-47.89c-26.41,0-47.89,21.48-47.89,47.89c0,0.78,0,1.48,0.08,2.27c6.25,1.56,12.11,4.14,17.42,7.5
		c-0.94-3.05-1.48-6.33-1.48-9.77c0-17.58,14.3-31.87,31.88-31.87s31.87,14.3,31.87,31.87s-14.3,31.88-31.87,31.88
		c-3.67,0-7.27-0.63-10.55-1.8c3.28,5.39,5.7,11.33,7.11,17.66c1.17,0.08,2.27,0.16,3.44,0.16c7.66,0,14.84-1.87,21.25-5.08
		l2.58,2.19c13.59,11.56,20.39,17.34,23.05,50.86c0,0.86-1.17,2.34-3.91,3.91c-8.83,5.08-25.94,7.66-42.97,7.66v15.62
		c19.14-0.16,39.69-3.36,50.78-9.77c9.69-5.62,11.72-12.58,11.72-17.97C246.95,112.85,237.81,103.16,221.8,89.49z M204.06,54.57
		c0,2.19,1.72,3.91,3.91,3.91c2.11,0,3.91-1.72,3.91-3.91c0-13.44-10.94-24.3-24.37-24.3c-2.11,0-3.91,1.72-3.91,3.91
		c0,2.11,1.8,3.91,3.91,3.91C196.64,38.09,204.06,45.51,204.06,54.57z M217.75,150.68c0,2.16,1.75,3.91,3.91,3.91
		c2.16,0,3.91-1.75,3.91-3.91c0-7.38,0-29.83-15.87-37.76c-1.93-0.95-4.27-0.18-5.24,1.75c-0.96,1.93-0.18,4.28,1.75,5.24
		C217.75,125.68,217.75,144.5,217.75,150.68z M149.35,117.08c0-13.41-10.91-24.32-24.32-24.32c-2.16,0-3.91,1.75-3.91,3.91
		c0,2.16,1.75,3.91,3.91,3.91c9.1,0,16.51,7.41,16.51,16.51c0,2.16,1.75,3.91,3.91,3.91C147.61,120.99,149.35,119.24,149.35,117.08z
		 M147.2,175.41c-1.91-0.95-4.27-0.18-5.24,1.75c-0.96,1.93-0.18,4.27,1.75,5.24c11.55,5.78,11.55,24.6,11.55,30.78
		c0,2.16,1.75,3.91,3.91,3.91c2.16,0,3.91-1.75,3.91-3.91C163.06,205.8,163.06,183.35,147.2,175.41z M187.5,213.95
		c0,5.39-2.03,12.34-11.72,17.97c-11.41,6.56-31.09,9.84-50.78,9.84c-19.61,0-39.3-3.28-50.7-9.84c-9.69-5.62-11.8-12.58-11.8-17.42
		c3.12-39.37,12.42-48.98,28.59-62.73l0.31-0.23c-8.91-8.75-14.53-20.86-14.53-34.3c0-5.78,1.02-11.33,2.97-16.48
		c4.69-12.97,14.84-23.28,27.66-28.2c5.39-2.11,11.25-3.28,17.42-3.28c6.25,0,12.27,1.17,17.73,3.44
		c12.58,5,22.58,15.16,27.19,27.89c2.03,5.16,3.05,10.78,3.05,16.64c0,13.36-5.55,25.47-14.37,34.14l0.47,0.39
		C175.16,165.51,184.45,175.12,187.5,213.95z M118.52,225.9l-14.22-17.27l13.75-31.41l-11.33-15.62c-0.7-0.23-1.33-0.62-2.03-0.86
		l-3.44,2.89c-13.59,11.56-20.47,17.34-23.12,51.48c0,0.23,1.25,1.72,3.98,3.28C89.84,222.85,103.75,225.35,118.52,225.9z
		 M157.27,117.23c0-17.81-14.53-32.34-32.34-32.34c-17.89,0-32.42,14.53-32.42,32.34c0,17.81,14.53,32.34,32.42,32.34
		C142.73,149.57,157.27,135.04,157.27,117.23z M171.88,214.49c-2.66-33.52-9.45-39.3-23.05-50.86l-3.59-3.05
		c-0.7,0.39-1.41,0.7-2.19,1.02l-11.33,15.62l13.75,31.41l-14.22,17.27c14.84-0.55,28.98-3.05,36.72-7.5
		C170.7,216.84,171.88,215.35,171.88,214.49z"/>
</g>
</svg>