<?xml version="1.0" encoding="utf-8"?>
<!-- Generator: Adobe Illustrator 26.0.0, SVG Export Plug-In . SVG Version: 6.00 Build 0)  -->
<svg version="1.1" id="Layer_1" xmlns="http://www.w3.org/2000/svg" xmlns:xlink="http://www.w3.org/1999/xlink" x="0px" y="0px"
	 viewBox="0 0 699.4 699.4" enable-background="new 0 0 699.4 699.4" xml:space="preserve">
<g>
	<path fill="#FFFFFF" d="M689.29,349.66c0,187.24-152.38,339.62-339.61,339.62c-187.24,0-339.56-152.38-339.56-339.62
		c0-187.23,152.31-339.55,339.56-339.55C536.91,10.12,689.29,162.43,689.29,349.66z"/>
	<g>
		<path fill="#022C23" d="M58.48,275.45l4.01-12.83c1.05-3.35,2.03-5.81,2.95-7.38c2.26-3.88,5.99-6.42,11.19-7.62
			c4.09-0.94,8.21-0.76,12.37,0.54c4.24,1.32,7.77,3.57,10.59,6.74c3.41,3.82,5,7.9,4.75,12.25c-0.07,1.12-0.21,2.1-0.4,2.93
			c-0.2,0.83-0.73,2.63-1.59,5.4l-3.87,12.4l-19.3-6.11L58.48,275.45z M65.02,261.1l23.5,7.5l12.72,3.81
			c0.66-2.19,1.05-3.78,1.16-4.79c0.11-1.01,0.04-2.23-0.22-3.67c-0.59-3.38-2.3-6.42-5.12-9.12c-2.42-2.34-5.3-4.04-8.63-5.08
			c-3.63-1.13-7.24-1.32-10.81-0.57c-6.36,1.35-10.47,5-12.33,10.97L65.02,261.1z"/>
		<path fill="#022C23" d="M93.88,220.12c0.83,0.45,1.84,0.98,3.05,1.58l1.65,0.82l19.01,9.32l3.79-7.8l2.68-5.52
			c0.45-0.9,1-1.19,1.65-0.86c0.54,0.27,0.73,0.65,0.58,1.15c-0.04,0.12-0.33,0.76-0.9,1.92l-13,25.97l-1.42-0.74l-9.15-4.61
			l-9.78-5.01L74.9,228l12.13-24.23c0.54-1.08,0.88-1.69,1.01-1.81c0.28-0.3,0.68-0.32,1.18-0.07c0.63,0.32,0.78,0.81,0.44,1.48
			l-0.08,0.16l-5.9,11.37l8.46,4.35l1.28-2.48l3.84-8.08l0.85-1.78c0.32-0.64,0.6-1.03,0.83-1.17c0.23-0.14,0.54-0.11,0.93,0.08
			c0.72,0.36,0.83,1.04,0.33,2.05l-0.97,1.77L93.88,220.12z"/>
		<path fill="#022C23" d="M131.37,173.96l-4.16-2.99l-6.64-4.71l-3.03-2.15l-1.91-1.34c-0.9-0.65-1.16-1.22-0.79-1.74
			c0.22-0.3,0.47-0.44,0.77-0.41c0.29,0.03,0.73,0.26,1.31,0.67l0.35,0.25c0.34,0.26,0.91,0.68,1.7,1.26l8.34,6.12l7.65,5.6
			l8.13,5.76l8.17,5.77c-4.19,1.31-10.15,3.35-17.88,6.13c-7.73,2.78-13.9,5.09-18.5,6.94l1.24,0.86l13.01,9.04l1.73,1.21
			c0.71,0.51,0.87,1.05,0.47,1.6c-0.41,0.57-1.05,0.53-1.93-0.1l-1.73-1.27l-2.8-2.04l-12.72-9.27l-17.33-12.21
			C103.02,184.33,115.2,180,131.37,173.96z"/>
		<path fill="#022C23" d="M176.23,148.09l0.56,0.65l3.84,4.46l0.5,0.58l-11.86,10.13l-1.2-1.44L154.17,146l-6.73-7.72l-4.54-5.28
			l-0.82-0.92l8.88-7.59c3.63-3.1,6.54-5.26,8.73-6.49c2.19-1.22,4.33-1.9,6.43-2.02c2.81-0.17,5.67,0.5,8.57,2
			c2.21,1.15,4.14,2.69,5.79,4.62c1.78,2.08,3.08,4.42,3.9,7c0.98,3.09,1.11,6,0.4,8.71c-0.71,2.72-2.22,5.07-4.53,7.04
			C179.39,146.08,178.05,147,176.23,148.09z M155.29,123.54l1.33,1.56l13.23,15.65l5,5.78c1.3-0.55,2.77-1.52,4.4-2.91
			c1.46-1.25,2.55-2.79,3.26-4.6c0.71-1.82,0.98-3.75,0.79-5.8c-0.3-3.48-1.68-6.65-4.12-9.51c-2.32-2.72-5.19-4.53-8.61-5.44
			c-2.43-0.64-4.81-0.58-7.15,0.17c-2.33,0.76-4.86,2.29-7.56,4.6L155.29,123.54z"/>
		<path fill="#022C23" d="M201.91,103.71c0.46,0.82,1.04,1.81,1.74,2.96l0.96,1.57l11.15,17.99l7.35-4.59l5.2-3.26
			c0.86-0.52,1.48-0.47,1.85,0.15c0.31,0.52,0.27,0.94-0.12,1.28c-0.09,0.08-0.69,0.46-1.78,1.15l-24.81,15.09l-0.81-1.38l-5.3-8.77
			l-5.62-9.44l-10.07-16.17l23.15-14.08c1.03-0.63,1.64-0.96,1.82-1c0.4-0.1,0.74,0.09,1.04,0.57c0.37,0.6,0.23,1.1-0.41,1.49
			l-0.15,0.09l-11.04,6.5l4.85,8.18l2.4-1.42l7.55-4.81l1.67-1.05c0.61-0.37,1.05-0.56,1.33-0.55c0.27,0,0.52,0.19,0.75,0.57
			c0.42,0.69,0.15,1.33-0.81,1.91l-1.76,0.99L201.91,103.71z"/>
		<path fill="#022C23" d="M258.23,84.52l-1.94-4.75l-3.12-7.52l-1.43-3.43l-0.91-2.15c-0.42-1.02-0.33-1.66,0.25-1.89
			c0.35-0.14,0.64-0.12,0.87,0.06c0.23,0.18,0.48,0.6,0.75,1.27l0.16,0.4c0.15,0.4,0.41,1.06,0.78,1.97l3.81,9.61l3.51,8.81
			l3.83,9.21l3.86,9.23c-4.25-1.12-10.38-2.55-18.41-4.31c-8.02-1.75-14.48-3.07-19.36-3.95l0.59,1.38l6.22,14.57l0.82,1.95
			c0.33,0.82,0.18,1.35-0.45,1.61c-0.65,0.26-1.18-0.11-1.58-1.11l-0.79-2l-1.29-3.22l-5.85-14.61l-8.19-19.55
			C228.7,78.23,241.32,81.05,258.23,84.52z"/>
		<path fill="#022C23" d="M307.41,72.52c1.21,5.95,0.73,11.25-1.46,15.91c-1.22,2.6-2.88,4.77-4.96,6.52
			c-2.08,1.75-4.39,2.9-6.92,3.46c-2.2,0.49-4.47,0.46-6.82-0.06c-2.35-0.53-4.55-1.51-6.59-2.94c-2.63-1.85-4.81-4.29-6.54-7.32
			c-1.37-2.42-2.34-4.91-2.91-7.46c-1.05-4.75-0.78-9.34,0.81-13.75c1.08-3.07,2.73-5.65,4.94-7.74s4.71-3.45,7.51-4.06
			c4.91-1.09,9.58,0.01,14.03,3.28c1.98,1.47,3.06,2.58,3.23,3.34c0.06,0.26,0.02,0.5-0.12,0.72c-0.14,0.22-0.33,0.35-0.58,0.41
			c-0.38,0.08-0.87-0.17-1.45-0.78c-4.52-4.59-9.4-6.31-14.63-5.15c-0.63,0.14-1.26,0.33-1.89,0.57l4.56,21.3l4.12,18.03
			c0.66,0,1.31-0.07,1.94-0.21c1.88-0.42,3.61-1.2,5.21-2.35c4.03-2.88,6.46-7.07,7.28-12.58c0.36-2.32,0.37-4.61,0.03-6.86
			l-13.03,2.88c-1.16,0.21-1.86,0.3-2.12,0.25c-0.26-0.05-0.43-0.28-0.52-0.7c-0.14-0.64,0.19-1.05,0.99-1.22l1.5-0.3L307.41,72.52z
			"/>
		<path fill="#022C23" d="M334.19,63.08c0.02,0.94,0.07,2.09,0.14,3.43l0.1,1.84l1.37,21.12l8.65-0.59l6.12-0.43
			c1-0.06,1.53,0.28,1.57,1c0.03,0.6-0.2,0.96-0.71,1.07c-0.12,0.03-0.82,0.09-2.11,0.18l-29,1.64l-0.06-1.59l-0.55-10.23
			l-0.52-10.97l-1.28-19.01l27.06-1.53c1.21-0.07,1.9-0.08,2.07-0.03c0.4,0.1,0.61,0.43,0.65,0.99c0.04,0.71-0.31,1.08-1.06,1.12
			l-0.18,0.01l-12.8,0.54l0.43,9.5l2.78-0.13l8.92-0.69l1.96-0.14c0.71-0.04,1.19,0.01,1.43,0.14c0.24,0.13,0.37,0.42,0.39,0.85
			c0.05,0.81-0.49,1.24-1.62,1.31l-2.02,0.04L334.19,63.08z"/>
		<path fill="#022C23" d="M379.31,50.7l-0.71,6.37l-1.06,10.16l-0.68,7.42l-1.39,15.74l1.83,0.2l10.9,0.81l1.98,0.16
			c1,0.1,1.47,0.5,1.4,1.23c-0.06,0.64-0.36,0.97-0.91,0.98c-0.12,0.01-0.51-0.01-1.18-0.05l-29.78-2.82l1.17-11.6l0.72-7.11
			l0.81-8.06l1.06-12.29l0.27-2.62L379.31,50.7z"/>
		<path fill="#022C23" d="M436.26,66.03c2.97,5.61,3.63,11.57,1.98,17.88c-1.39,5.34-4.1,9.67-8.14,13
			c-2.24,1.84-4.7,3.09-7.37,3.75c-2.75,0.7-5.42,0.71-7.99,0.04c-3.96-1.03-7.3-3.54-10.03-7.54l-2.68,2.3
			c-0.69,0.6-1.15,0.97-1.38,1.11c-0.23,0.14-0.45,0.19-0.67,0.13c-0.63-0.16-0.84-0.62-0.64-1.37c0.06-0.22,0.16-0.41,0.31-0.57
			c0.15-0.16,0.65-0.62,1.52-1.37l2.52-2.25c-2.34-5.3-2.75-10.85-1.24-16.65c1.61-6.19,4.82-10.91,9.63-14.14
			c4.46-2.98,9.05-3.86,13.79-2.62c3.73,0.97,6.78,3.08,9.16,6.32l2.06-1.79c0.73-0.64,1.24-1.04,1.53-1.2
			c0.29-0.17,0.56-0.21,0.81-0.15c0.25,0.06,0.45,0.24,0.59,0.52c0.15,0.28,0.19,0.56,0.11,0.84c-0.06,0.22-0.16,0.41-0.32,0.58
			c-0.16,0.17-0.71,0.66-1.64,1.46L436.26,66.03z M434.87,67.15l-17.81,16.44l-3.8,14.6c0.61,0.29,1.24,0.51,1.89,0.68
			c3.17,0.82,6.4,0.55,9.69-0.84c3.21-1.34,5.93-3.58,8.18-6.71c1.7-2.34,2.93-4.94,3.67-7.79
			C438.17,77.79,437.57,72.33,434.87,67.15z M433.6,65.28c-2.15-2.94-4.89-4.84-8.22-5.71c-0.64-0.17-1.3-0.28-1.98-0.33
			l-5.37,20.61L433.6,65.28z"/>
		<path fill="#022C23" d="M443.37,100.69c0.28,0.12,0.5,0.52,0.65,1.19c0.5,2.05,1.4,3.91,2.69,5.57c1.29,1.67,2.77,2.86,4.42,3.58
			c1.83,0.79,3.03,0.53,3.61-0.81c0.37-0.84,0.46-1.94,0.28-3.27c-0.18-1.34-0.8-4.1-1.86-8.29c-1.33-5.28-2.09-9.1-2.27-11.46
			c-0.24-3.12,0.13-5.82,1.13-8.11c1.5-3.45,4.01-5.72,7.53-6.8c3.45-1.06,7.03-0.79,10.71,0.81c2.58,1.12,4.67,2.78,6.29,4.97
			c0.6,0.84,1.06,1.71,1.36,2.6c0.31,0.89,0.37,1.55,0.18,1.99c-0.09,0.21-0.26,0.36-0.5,0.47c-0.24,0.11-0.45,0.12-0.62,0.05
			c-0.27-0.12-0.53-0.58-0.79-1.38c-0.43-1.32-1.19-2.6-2.3-3.83c-1.1-1.23-2.29-2.11-3.55-2.66c-0.78-0.34-1.51-0.41-2.17-0.22
			c-0.67,0.19-1.14,0.6-1.42,1.24c-0.33,0.77-0.44,1.84-0.31,3.21c0.13,1.37,0.52,3.29,1.17,5.76c2.05,7.87,3.14,13.05,3.29,15.54
			c0.14,2.63-0.22,4.94-1.1,6.95c-0.74,1.71-1.83,3.15-3.25,4.34s-3.03,1.97-4.81,2.36c-3.4,0.73-6.97,0.28-10.71-1.34
			c-3.44-1.5-6-3.88-7.68-7.15c-1.18-2.29-1.58-3.86-1.22-4.71c0.11-0.24,0.28-0.43,0.53-0.55
			C442.92,100.61,443.15,100.6,443.37,100.69z"/>
		<path fill="#022C23" d="M501.58,106.23c-0.53,0.78-1.15,1.74-1.86,2.89l-0.97,1.56l-11.03,18.07l7.41,4.49l5.25,3.17
			c0.85,0.53,1.09,1.1,0.71,1.72c-0.32,0.51-0.72,0.67-1.19,0.47c-0.11-0.05-0.72-0.4-1.83-1.07l-24.66-15.34l0.86-1.34l5.43-8.69
			l5.89-9.27l9.89-16.28l23.01,14.31c1.03,0.64,1.6,1.03,1.71,1.17c0.27,0.31,0.25,0.71-0.04,1.18c-0.37,0.6-0.88,0.7-1.51,0.3
			l-0.15-0.09l-10.78-6.92l-5.11,8.02l2.35,1.5l7.7,4.57l1.69,1.01c0.61,0.38,0.97,0.69,1.09,0.93c0.12,0.24,0.06,0.55-0.17,0.92
			c-0.43,0.69-1.12,0.73-2.07,0.14l-1.68-1.13L501.58,106.23z"/>
		<path fill="#022C23" d="M560.87,137.4l-15.5,15.26l-12.96,13.16c0.52,0.73,0.99,1.3,1.4,1.71c1.18,1.18,2.64,2.14,4.39,2.87
			c1.75,0.73,3.53,1.14,5.35,1.23c1.18,0.05,2.56-0.06,4.16-0.35c1.6-0.28,3.04-0.67,4.34-1.17c0.75-0.29,1.26-0.3,1.52-0.04
			c0.4,0.4,0.39,0.8-0.01,1.2c-0.43,0.43-1.47,0.87-3.1,1.31c-1.63,0.44-3.21,0.71-4.75,0.82c-3.32,0.23-6.37-0.35-9.15-1.74
			c-1.67-0.83-3.09-1.83-4.24-2.99c-1.69-1.69-2.94-3.82-3.77-6.38c-1.35-4.1-1.24-8.35,0.32-12.75c1.29-3.65,3.33-6.87,6.11-9.64
			c2.84-2.83,6.13-4.89,9.88-6.17c3.99-1.36,7.89-1.55,11.71-0.56c2.76,0.74,5.15,2.12,7.17,4.15c3.47,3.47,5.05,7.88,4.76,13.24
			c-0.14,2.55-0.51,4.12-1.1,4.71c-0.16,0.16-0.36,0.24-0.61,0.25s-0.45-0.06-0.59-0.2c-0.24-0.24-0.25-0.81-0.02-1.71
			c0.69-2.75,0.69-5.48,0-8.19c-0.69-2.7-1.98-5-3.87-6.89C561.84,138.07,561.36,137.7,560.87,137.4z"/>
		<path fill="#022C23" d="M595.72,173.32l-24.12,42.5l-10.35-14.39l3.12-5.28l-5-6.95l-4.38-6.14l-0.72-1.05l-4.03,0.82
			c-1.2,0.26-1.97,0.39-2.31,0.38c-0.34,0-0.59-0.12-0.76-0.36c-0.34-0.47-0.26-0.89,0.24-1.25c0.22-0.16,0.72-0.31,1.5-0.46
			c0.78-0.15,3.4-0.6,7.85-1.34l34.42-5.68L595.72,173.32z M574.71,178.63l-9.93,1.63l-8.12,1.43l4.35,6.26l4.56,6.14L574.71,178.63
			z"/>
		<path fill="#022C23" d="M606.85,222.89l-6.67,3.26l-17.48,8.88l-1.26,0.63l-6.97-14l20.49-9.98l16.99-8.69l12.08,24.26
			c0.55,1.1,0.83,1.73,0.84,1.89c0.07,0.4-0.15,0.73-0.66,0.99c-0.63,0.31-1.11,0.14-1.45-0.54l-0.08-0.16l-5.54-11.55l-8.56,4.15
			l1.21,2.51l4.15,7.93l0.91,1.75c0.32,0.64,0.47,1.1,0.44,1.37c-0.03,0.27-0.23,0.5-0.62,0.69c-0.71,0.35-1.32,0.03-1.82-0.98
			l-0.85-1.83L606.85,222.89z"/>
		<path fill="#022C23" d="M622.79,262.57c-0.91,0.25-2,0.59-3.29,1l-1.75,0.56l-20.1,6.63l2.75,8.22l1.95,5.82
			c0.31,0.96,0.11,1.55-0.58,1.77c-0.58,0.18-0.98,0.05-1.21-0.42c-0.06-0.11-0.29-0.78-0.71-2l-8.87-27.65l1.53-0.46l9.76-3.11
			l10.49-3.26l18.08-6.01l8.28,25.8c0.37,1.15,0.55,1.82,0.55,2c0,0.41-0.26,0.7-0.8,0.87c-0.67,0.22-1.12-0.03-1.35-0.75
			l-0.05-0.17l-3.74-12.25l-9.09,2.81l0.82,2.66l2.91,8.46l0.63,1.87c0.22,0.68,0.29,1.15,0.23,1.42c-0.07,0.26-0.31,0.46-0.72,0.59
			c-0.77,0.25-1.33-0.16-1.67-1.24l-0.55-1.95L622.79,262.57z M637.84,254.36l8.77-0.18l2.75,8.57l-9.69-2.69L637.84,254.36z"/>
	</g>
	<g>
		<path fill="#022C23" d="M54.94,383.57l30.4-4.54l0.49,3.3l-15.07,2.25l16.93,10.13l0.67,4.47l-13.89-8.62l-16.44,13.62l-0.65-4.35
			l14.05-11.15l-5.45-3.38l-10.53,1.58L54.94,383.57z"/>
		<path fill="#022C23" d="M58.95,408.9l32.17,2.03l0.86,3.46l-27.35,17.42l-0.92-3.7l8.33-5.09l-2.55-10.29l-9.7-0.42L58.95,408.9z
			 M72.95,412.88l2.07,8.33l7.63-4.59c2.34-1.42,4.26-2.5,5.76-3.26c-1.99,0.16-4,0.18-6.03,0.08L72.95,412.88z"/>
		<path fill="#022C23" d="M66.96,439L96,428.94l5.56,16.07l-3.43,1.19l-4.47-12.92l-8.99,3.11l3.87,11.17l-3.43,1.19l-3.87-11.17
			l-13.19,4.57L66.96,439z"/>
		<path fill="#022C23" d="M75.93,463.51l28.05-12.56l6.95,15.52l-3.31,1.48l-5.59-12.48l-8.69,3.89l4.83,10.79l-3.31,1.48
			l-4.83-10.79l-12.74,5.71L75.93,463.51z"/>
		<path fill="#022C23" d="M86.97,487.11l26.78-15.09l8.94,15.87l-3.16,1.78l-7.31-12.97l-8.18,4.61l6.84,12.15l-3.16,1.78
			l-6.84-12.15l-9.11,5.14l7.6,13.48l-3.16,1.78L86.97,487.11z"/>
		<path fill="#022C23" d="M101.2,511.38l25.21-17.59l5.42,7.76c1.1,1.57,1.72,2.99,1.88,4.24s-0.08,2.54-0.7,3.84
			c-0.62,1.3-1.56,2.39-2.81,3.26c-1.16,0.81-2.38,1.28-3.65,1.43s-2.52-0.05-3.72-0.57c0.4,1.5,0.32,2.96-0.25,4.39
			c-0.57,1.42-1.62,2.67-3.16,3.74c-1.53,1.06-3.08,1.69-4.67,1.87c-1.59,0.18-3.01-0.07-4.26-0.75c-1.25-0.68-2.51-1.93-3.78-3.75
			L101.2,511.38z M106.08,512.04l3.59,5.15c0.79,1.14,1.48,1.9,2.06,2.3c0.84,0.57,1.75,0.82,2.71,0.76c0.97-0.07,1.97-0.46,3-1.18
			c0.95-0.66,1.62-1.42,2.01-2.27c0.39-0.85,0.5-1.71,0.34-2.58c-0.16-0.87-0.73-2.01-1.71-3.43l-3.34-4.79L106.08,512.04z
			 M117.72,503.91l3.13,4.48c0.82,1.17,1.48,1.95,1.98,2.33c0.74,0.54,1.52,0.81,2.36,0.8c0.84-0.01,1.74-0.36,2.72-1.04
			c0.91-0.63,1.54-1.33,1.89-2.1c0.36-0.77,0.45-1.52,0.27-2.26c-0.18-0.74-0.79-1.86-1.84-3.37l-2.9-4.15L117.72,503.91z"/>
		<path fill="#022C23" d="M116.09,532.31l29.7-12.53l2.31,2.72l-16.71,27.79l-2.47-2.9l5.19-8.27l-6.87-8.07l-8.86,3.95
			L116.09,532.31z M130.38,529.63l5.57,6.54l4.78-7.51c1.46-2.31,2.7-4.14,3.7-5.49c-1.71,1.03-3.5,1.95-5.36,2.76L130.38,529.63z"
			/>
		<path fill="#022C23" d="M136.63,555.72l21.31-22.15l8.05,7.75c1.68,1.62,2.72,3.02,3.13,4.2c0.4,1.18,0.4,2.5-0.01,3.96
			c-0.41,1.46-1.23,2.82-2.45,4.08c-1.61,1.67-3.35,2.61-5.21,2.8c-1.87,0.2-3.77-0.36-5.7-1.68c0.28,1.05,0.4,1.96,0.36,2.71
			c-0.1,1.53-0.38,3.08-0.83,4.64l-2.63,9.08l-3.02-2.91l2.01-6.94c0.79-2.7,1.25-4.6,1.38-5.68c0.12-1.08,0.07-1.95-0.17-2.6
			c-0.24-0.65-0.76-1.36-1.57-2.13l-2.78-2.67l-9.46,9.83L136.63,555.72z M150.94,545.66l5.17,4.97c1.13,1.08,2.11,1.77,2.96,2.06
			c0.85,0.29,1.72,0.31,2.63,0.05c0.9-0.25,1.73-0.77,2.48-1.55c1.08-1.12,1.59-2.31,1.55-3.58c-0.04-1.27-0.7-2.52-1.99-3.76
			l-5.74-5.53L150.94,545.66z"/>
		<path fill="#022C23" d="M177.18,571.63c0.91-1.22,2.02-1.97,3.33-2.25c1.3-0.28,2.42-0.07,3.35,0.62c0.93,0.7,1.44,1.71,1.53,3.03
			c0.09,1.33-0.32,2.6-1.24,3.82c-0.92,1.23-2.04,1.99-3.34,2.27c-1.3,0.28-2.41,0.08-3.33-0.61c-0.93-0.7-1.44-1.71-1.53-3.05
			C175.85,574.12,176.26,572.85,177.18,571.63z"/>
		<path fill="#022C23" d="M197.14,592.02l2.89,1.29c-0.7,1.55-1.03,2.88-0.99,3.99c0.04,1.11,0.4,2.2,1.06,3.25
			c0.67,1.05,1.6,1.92,2.8,2.61c1.72,1,3.29,1.35,4.73,1.06c1.44-0.29,2.54-1.1,3.32-2.44c0.45-0.78,0.68-1.57,0.67-2.35
			c-0.01-0.79-0.25-1.57-0.73-2.34c-0.48-0.78-1.67-2.18-3.59-4.2c-1.7-1.8-2.81-3.26-3.32-4.38c-0.51-1.12-0.74-2.3-0.67-3.53
			c0.07-1.23,0.45-2.44,1.14-3.64c1.25-2.15,2.96-3.51,5.15-4.07c2.18-0.56,4.45-0.16,6.81,1.21c1.62,0.94,2.85,2.08,3.7,3.43
			c0.84,1.34,1.25,2.81,1.23,4.4c-0.02,1.59-0.48,3.2-1.37,4.85l-2.92-1.36c0.86-1.81,1.08-3.39,0.68-4.74
			c-0.41-1.35-1.41-2.49-3.02-3.42c-1.63-0.95-3.09-1.3-4.37-1.07c-1.28,0.23-2.26,0.93-2.93,2.09c-0.62,1.08-0.79,2.09-0.51,3.05
			c0.29,0.96,1.35,2.38,3.2,4.26c1.81,1.84,3.02,3.23,3.64,4.18c0.94,1.45,1.42,2.93,1.46,4.42c0.04,1.5-0.39,3.02-1.28,4.55
			c-0.88,1.52-2.04,2.7-3.48,3.54c-1.44,0.84-2.96,1.23-4.57,1.17c-1.61-0.06-3.27-0.59-5-1.59c-2.7-1.56-4.38-3.62-5.04-6.17
			C195.15,597.51,195.59,594.83,197.14,592.02z"/>
		<path fill="#022C23" d="M223.29,601.02c2.15-4.78,4.86-7.98,8.12-9.6c3.26-1.62,6.46-1.72,9.59-0.31
			c2.03,0.91,3.62,2.32,4.77,4.22c1.15,1.9,1.72,4.16,1.72,6.79c-0.01,2.62-0.69,5.45-2.05,8.47c-1.87,4.16-4.34,7.11-7.4,8.88
			c-3.37,1.94-6.74,2.16-10.11,0.64c-3.39-1.53-5.45-4.23-6.18-8.12C221.07,608.46,221.59,604.81,223.29,601.02z M226.41,602.48
			c-1.56,3.46-2,6.48-1.34,9.07c0.66,2.59,2.09,4.38,4.27,5.36c2.23,1,4.53,0.88,6.91-0.36c2.38-1.25,4.41-3.74,6.09-7.48
			c1.09-2.41,1.67-4.74,1.75-6.99c0.06-1.72-0.32-3.29-1.13-4.71s-1.93-2.45-3.36-3.09c-2.29-1.03-4.61-0.93-6.96,0.32
			C230.28,595.85,228.21,598.48,226.41,602.48z"/>
		<path fill="#022C23" d="M268.25,623.19l2.87,2.02c-1.78,3.05-3.82,5.09-6.11,6.13c-2.29,1.04-4.7,1.14-7.22,0.31
			c-2.22-0.73-3.94-1.89-5.15-3.49c-1.22-1.6-1.94-3.76-2.15-6.48c-0.22-2.72,0.21-5.71,1.28-8.97c1.06-3.22,2.45-5.77,4.19-7.67
			c1.73-1.9,3.65-3.13,5.73-3.7c2.09-0.57,4.19-0.51,6.3,0.18c2.31,0.76,4.06,2.13,5.25,4.11c1.19,1.98,1.66,4.48,1.41,7.48
			l-3.4-0.12c0.27-4.4-1.2-7.13-4.41-8.18c-1.6-0.52-3.11-0.57-4.55-0.14c-1.44,0.43-2.79,1.4-4.06,2.9
			c-1.27,1.5-2.33,3.57-3.2,6.22c-1.31,4-1.6,7.23-0.84,9.7c0.75,2.46,2.29,4.08,4.63,4.84c1.73,0.57,3.42,0.44,5.08-0.37
			C265.55,627.13,267,625.54,268.25,623.19z"/>
		<path fill="#022C23" d="M276.81,636.62l7.42-29.83l3.23,0.8l-7.42,29.83L276.81,636.62z"/>
		<path fill="#022C23" d="M287,639.26l14.89-28.59l3.51,0.62l4.85,32.06l-3.76-0.66l-1.28-9.68l-10.44-1.83l-4.31,8.7L287,639.26z
			 M296.3,628.08l8.46,1.48l-1.11-8.84c-0.35-2.71-0.56-4.91-0.65-6.59c-0.66,1.88-1.45,3.73-2.37,5.54L296.3,628.08z"/>
		<path fill="#022C23" d="M317.29,644.05l2.61-30.63l3.32,0.28l-2.3,27.01l12.37,1.05l-0.31,3.62L317.29,644.05z"/>
		<path fill="#022C23" d="M341.55,645.63l0.67-30.73l3.33,0.07l-0.67,30.73L341.55,645.63z"/>
		<path fill="#022C23" d="M353.21,635.99l3.13-0.49c0.25,1.68,0.69,2.98,1.33,3.89c0.64,0.91,1.52,1.63,2.65,2.15
			c1.13,0.52,2.39,0.74,3.77,0.68c1.98-0.1,3.5-0.66,4.55-1.68c1.05-1.02,1.54-2.3,1.46-3.85c-0.04-0.91-0.28-1.69-0.71-2.34
			c-0.43-0.66-1.06-1.18-1.88-1.57c-0.82-0.39-2.59-0.92-5.29-1.58c-2.41-0.59-4.13-1.22-5.17-1.88s-1.87-1.53-2.48-2.6
			c-0.61-1.07-0.95-2.29-1.02-3.68c-0.12-2.49,0.58-4.55,2.11-6.21c1.53-1.66,3.65-2.55,6.38-2.68c1.87-0.09,3.53,0.2,4.96,0.87
			c1.44,0.67,2.58,1.68,3.42,3.02c0.84,1.34,1.34,2.95,1.48,4.82l-3.19,0.45c-0.26-1.99-0.93-3.44-2.01-4.35
			c-1.07-0.91-2.54-1.32-4.39-1.23c-1.89,0.09-3.3,0.58-4.25,1.48c-0.95,0.89-1.39,2.01-1.33,3.35c0.06,1.24,0.47,2.19,1.23,2.84
			c0.76,0.65,2.43,1.26,5,1.84c2.52,0.57,4.29,1.08,5.32,1.53c1.57,0.71,2.78,1.69,3.63,2.92c0.85,1.24,1.31,2.74,1.4,4.51
			c0.09,1.76-0.25,3.38-1,4.86s-1.82,2.64-3.2,3.46c-1.38,0.82-3.07,1.28-5.07,1.38c-3.11,0.15-5.64-0.66-7.58-2.45
			C354.52,641.68,353.43,639.19,353.21,635.99z"/>
		<path fill="#022C23" d="M383.13,643.95l-4.42-30.42l18.03-2.62l0.52,3.59l-14.73,2.14l1.35,9.29l13.8-2l0.52,3.59l-13.8,2
			l1.5,10.35l15.31-2.22l0.52,3.59L383.13,643.95z"/>
		<path fill="#022C23" d="M411.07,639.42l-7.39-29.84l10.85-2.68c2.27-0.56,4.01-0.7,5.22-0.41c1.22,0.29,2.33,1,3.34,2.12
			c1.01,1.12,1.73,2.54,2.15,4.25c0.56,2.25,0.42,4.22-0.41,5.91c-0.83,1.69-2.31,3-4.46,3.93c1.04,0.32,1.87,0.7,2.49,1.14
			c1.25,0.9,2.41,1.96,3.49,3.18l6.28,7.06l-4.07,1.01l-4.8-5.4c-1.87-2.11-3.22-3.51-4.08-4.2c-0.85-0.68-1.62-1.1-2.29-1.24
			c-0.68-0.14-1.56-0.08-2.64,0.19l-3.74,0.93l3.28,13.25L411.07,639.42z M410.18,621.95l6.96-1.72c1.52-0.38,2.63-0.84,3.32-1.41
			c0.7-0.56,1.18-1.29,1.44-2.19c0.27-0.9,0.27-1.87,0.01-2.92c-0.37-1.51-1.11-2.58-2.2-3.23c-1.09-0.64-2.51-0.75-4.25-0.32
			l-7.73,1.92L410.18,621.95z"/>
		<path fill="#022C23" d="M440.21,631.51l-9.52-29.23l3.17-1.03l9.52,29.23L440.21,631.51z"/>
		<path fill="#022C23" d="M452.8,627.35l-11.62-28.46l3.16-1.29l21.41,17.37l-9.14-22.38l2.95-1.21l11.62,28.46l-3.16,1.29
			l-21.39-17.39l9.15,22.39L452.8,627.35z"/>
		<path fill="#022C23" d="M485.69,599.06l-1.72-3.19l9.38-5.08l5.42,10.06c-0.68,2.18-1.6,4.04-2.76,5.57
			c-1.16,1.54-2.55,2.74-4.17,3.62c-2.17,1.17-4.39,1.67-6.67,1.5c-2.28-0.17-4.48-1.03-6.59-2.57c-2.11-1.55-3.95-3.78-5.53-6.7
			c-1.59-2.96-2.48-5.8-2.67-8.53c-0.18-2.73,0.25-5.05,1.3-6.96c1.05-1.91,2.68-3.46,4.88-4.64c1.62-0.88,3.21-1.34,4.75-1.39
			c1.54-0.05,3.01,0.26,4.39,0.94c1.38,0.68,2.79,1.88,4.23,3.6l-2.16,2.31c-1.18-1.33-2.24-2.23-3.19-2.7
			c-0.95-0.46-1.98-0.67-3.1-0.63c-1.12,0.05-2.23,0.37-3.34,0.97c-1.61,0.87-2.79,2.01-3.53,3.42c-0.74,1.41-1.02,3.13-0.84,5.16
			c0.18,2.03,0.91,4.24,2.19,6.61c1.95,3.62,4.17,5.93,6.66,6.91c2.49,0.99,4.94,0.83,7.36-0.48c1.16-0.62,2.19-1.54,3.11-2.75
			c0.91-1.21,1.52-2.38,1.82-3.53l-2.72-5.04L485.69,599.06z"/>
		<path fill="#022C23" d="M510.22,580.47c-0.89-1.24-1.27-2.52-1.14-3.85c0.12-1.33,0.66-2.33,1.6-3c0.94-0.68,2.06-0.86,3.35-0.54
			c1.29,0.31,2.38,1.09,3.27,2.33c0.9,1.25,1.28,2.54,1.16,3.87c-0.12,1.33-0.65,2.33-1.58,2.99c-0.94,0.68-2.06,0.86-3.36,0.54
			C512.2,582.49,511.11,581.71,510.22,580.47z"/>
		<path fill="#022C23" d="M534.55,540.3l2.45-2.26l12.04,13.05c2.02,2.19,3.46,4.18,4.33,5.98c0.87,1.79,1.11,3.62,0.74,5.47
			s-1.43,3.57-3.16,5.17c-2.44,2.25-4.95,3.21-7.51,2.88c-2.56-0.34-5.55-2.36-8.96-6.05l-12.04-13.05l2.45-2.26l12.02,13.04
			c1.89,2.04,3.41,3.38,4.57,4c1.16,0.62,2.33,0.84,3.49,0.65c1.17-0.19,2.27-0.76,3.3-1.72c1.75-1.61,2.56-3.27,2.43-4.98
			c-0.12-1.71-1.5-4-4.14-6.85L534.55,540.3z"/>
		<path fill="#022C23" d="M565.23,553.09l-23.05-20.34l5.76-6.52c1.42-1.62,2.65-2.71,3.67-3.3c1.34-0.78,2.85-1.14,4.54-1.08
			s3.47,0.51,5.35,1.37c1.88,0.86,3.84,2.18,5.87,3.98c2.61,2.3,4.49,4.64,5.63,7.01c1.14,2.37,1.56,4.49,1.27,6.36
			c-0.3,1.87-1.3,3.78-3.02,5.71L565.23,553.09z M564.72,548.19l3.55-4.02c1.43-1.62,2.26-3.09,2.47-4.4
			c0.21-1.3-0.07-2.7-0.85-4.19c-1.03-1.98-2.64-3.93-4.82-5.85c-2.34-2.06-4.45-3.37-6.35-3.91c-1.9-0.54-3.51-0.52-4.84,0.08
			c-0.9,0.4-1.99,1.33-3.27,2.79l-3.5,3.96L564.72,548.19z"/>
		<path fill="#022C23" d="M589.14,524.08l-30.66-10.03l2.11-2.93l21.96,7.72c1.7,0.6,3.32,1.23,4.86,1.87
			c-1.14-1.31-2.24-2.65-3.3-4.03l-14.13-18.59l1.99-2.76l19.18,25.96L589.14,524.08z"/>
		<path fill="#022C23" d="M600.91,506.7l-26.13-16.19l1.76-2.83l26.13,16.19L600.91,506.7z"/>
		<path fill="#022C23" d="M607.75,495.5l-27.19-14.34l1.55-2.95l13.48,7.11l-7.64-18.19l2.11-4l6.09,15.17l21.31-1.24l-2.05,3.89
			l-17.92,0.67l2.39,5.95l9.42,4.97L607.75,495.5z"/>
		<path fill="#022C23" d="M620.36,470.51l-28.34-11.9l1.29-3.07l24.99,10.5l4.81-11.44l3.34,1.41L620.36,470.51z"/>
		<path fill="#022C23" d="M629.32,447.93l-29.03-10.11l1.1-3.15l29.02,10.11L629.32,447.93z"/>
		<path fill="#022C23" d="M633.63,435.38l-29.69-7.96l0.88-3.3l26.79-6.54l-23.36-6.26l0.82-3.08l29.69,7.96l-0.89,3.3l-26.79,6.52
			l23.36,6.26L633.63,435.38z"/>
		<path fill="#022C23" d="M631,392.07l-3.58-0.56l1.63-10.55l11.29,1.77c1.32,1.86,2.24,3.72,2.77,5.57
			c0.52,1.85,0.64,3.69,0.36,5.51c-0.38,2.43-1.33,4.5-2.84,6.22c-1.51,1.72-3.53,2.95-6.04,3.69c-2.51,0.75-5.4,0.86-8.68,0.35
			c-3.32-0.52-6.12-1.53-8.4-3.03s-3.87-3.25-4.75-5.24c-0.88-1.99-1.13-4.22-0.75-6.7c0.29-1.82,0.87-3.37,1.76-4.63
			c0.89-1.26,2.03-2.24,3.41-2.93c1.38-0.69,3.19-1.08,5.43-1.19l0.53,3.12c-1.77,0.13-3.13,0.44-4.08,0.91
			c-0.94,0.47-1.74,1.17-2.38,2.09c-0.64,0.92-1.06,2-1.25,3.24c-0.28,1.81-0.09,3.43,0.59,4.88c0.67,1.44,1.87,2.71,3.6,3.79
			c1.73,1.08,3.93,1.84,6.59,2.25c4.06,0.64,7.24,0.26,9.53-1.12c2.29-1.38,3.65-3.43,4.08-6.15c0.2-1.3,0.1-2.68-0.31-4.13
			c-0.41-1.46-0.98-2.65-1.71-3.59l-5.65-0.88L631,392.07z"/>
	</g>
	<path fill="#E6F3DD" d="M349.67,16.31c-183.84,0-333.36,149.52-333.36,333.36c0,183.84,149.52,333.41,333.36,333.41
		c183.84,0,333.41-149.58,333.41-333.41C683.09,165.84,533.51,16.31,349.67,16.31z M349.67,674.61
		c-179.14,0-324.88-145.79-324.88-324.93c0-179.14,145.73-324.88,324.88-324.88c179.14,0,324.93,145.73,324.93,324.88
		C674.61,528.81,528.82,674.61,349.67,674.61z"/>
	<path fill="#C6EBB8" d="M473.53,161.71c-2.09,8.76-6.39,16.62-13,20.86c-10.57,6.84-23.46,3.05-35.5,3.11
		c-11.98,0.06-26.63,8.25-26.06,22.61c0.57,14.47,16.56,24.76,13.85,38.84c-1.98,10.34-12.55,13.91-21.09,16.9
		c-8.54,3-18.43,11.31-15.77,21.48c1.36,5.2,5.77,8.65,7.24,13.85c2.43,8.31-3.39,16.45-8.37,22.89c-1.98,2.54-4.01,5.6-5.37,8.82
		h-39.57c-1.36-3.22-3.34-6.27-5.31-8.82c-5.03-6.44-10.8-14.58-8.42-22.89c1.47-5.2,5.88-8.65,7.24-13.85
		c2.66-10.18-7.24-18.49-15.77-21.48c-8.54-3-19.05-6.56-21.09-16.9c-2.71-14.08,13.28-24.36,13.85-38.84
		c0.57-14.36-14.02-22.56-26.06-22.61c-12.04-0.06-24.93,3.73-35.5-3.11c-6.61-4.24-10.91-12.1-12.95-20.86
		c35.5-23.52,78.12-37.2,123.8-37.2C395.35,124.51,437.97,138.19,473.53,161.71z"/>
	<g id="XMLID_00000080904678697461311440000002796294977741805751_">
		<rect x="42.36" y="335.73" fill="#022C23" width="52.98" height="8.48"/>
		<rect x="601.46" y="335.73" fill="#022C23" width="52.98" height="8.48"/>
	</g>
	<path fill="#C6EBB8" d="M349.68,1.26C157.53,1.26,1.26,157.53,1.26,349.66c0,192.15,156.27,348.48,348.42,348.48
		c192.13,0,348.47-156.33,348.47-348.48C698.14,157.53,541.81,1.26,349.68,1.26z M349.68,689.29
		c-187.24,0-339.56-152.38-339.56-339.62c0-187.23,152.31-339.55,339.56-339.55c187.23,0,339.61,152.31,339.61,339.55
		C689.29,536.91,536.91,689.29,349.68,689.29z"/>
	<g id="XMLID_00000047035848618561180520000016551858109395272578_">
		<path fill="#FFFFFF" d="M579.13,349.67c0,126.74-102.71,229.46-229.45,229.46c-126.68,0-229.46-102.71-229.46-229.46
			c0-80.72,41.72-151.61,104.75-192.54c0.23,1.53,0.51,3.05,0.9,4.58c2.03,8.76,6.33,16.62,12.95,20.86
			c10.57,6.84,23.46,3.05,35.5,3.11c12.04,0.06,26.63,8.25,26.06,22.61c-0.57,14.47-16.56,24.76-13.85,38.84
			c2.03,10.34,12.55,13.91,21.09,16.9c8.54,3,18.43,11.31,15.77,21.48c-1.36,5.2-5.77,8.65-7.24,13.85
			c-2.37,8.31,3.39,16.45,8.42,22.89c1.98,2.54,3.96,5.6,5.31,8.82c2.15,4.86,3,10.06,0.57,14.47h38.44
			c-2.43-4.41-1.58-9.61,0.57-14.47c1.36-3.22,3.39-6.27,5.37-8.82c4.97-6.44,10.8-14.58,8.37-22.89c-1.47-5.2-5.88-8.65-7.24-13.85
			c-2.66-10.18,7.24-18.49,15.77-21.48c8.54-3,19.11-6.56,21.09-16.9c2.71-14.08-13.28-24.36-13.85-38.84
			c-0.57-14.36,14.08-22.56,26.06-22.61c12.04-0.06,24.93,3.73,35.5-3.11c6.61-4.24,10.91-12.1,13-20.86
			c0.4-1.53,0.68-3.05,0.9-4.58C537.41,198.06,579.13,268.95,579.13,349.67z"/>
	</g>
	<path fill="#022C23" d="M459.79,350.24c-0.34,0-0.62,0.06-0.96,0.06v-19.22H240.51v67.55c0,42.34,24.14,78.94,59.34,97.05
		c-17.53,2.58-28.72,6.49-28.72,10.88c0,7.77,35.16,14.07,78.54,14.07c43.38,0,78.54-6.3,78.54-14.07c0-4.38-11.19-8.3-28.72-10.88
		c20.76-10.72,37.67-27.88,48.03-48.89c3.96,1.02,8.03,1.64,12.27,1.64c27.08,0,49.12-22.05,49.12-49.12
		S486.87,350.24,459.79,350.24z M459.79,429.83c-1.87,0-3.62-0.23-5.37-0.57c2.83-9.72,4.41-19.95,4.41-30.64v-29.68
		c0.34-0.06,0.62-0.11,0.96-0.11c16.85,0,30.53,13.68,30.53,30.47C490.32,416.15,476.64,429.83,459.79,429.83z"/>
	<g>
		<g>
			<path fill="#FFFFFF" d="M335.09,154c2.69,0,4.94,1.32,6.74,3.95c1.75,2.56,2.62,5.82,2.62,9.8c0,4.12-1.03,7.48-3.1,10.08
				c-1.74,2.22-3.83,3.32-6.27,3.32c-1.68,0-3.26-0.51-4.73-1.53c-1.76-1.23-3.1-3.01-4.02-5.34c-0.73-1.85-1.1-4.08-1.1-6.7
				c0-4.22,1.01-7.57,3.02-10.06c0.89-1.11,1.93-1.97,3.12-2.58C332.56,154.32,333.8,154.01,335.09,154z M334.78,155.26l-0.08,12.27
				l0.06,10.12l0.02,2.23c1.96,0.03,3.65-0.67,5.07-2.08c1.15-1.16,2.03-2.61,2.65-4.35c0.61-1.74,0.92-3.7,0.92-5.86
				c0-3.83-0.82-6.87-2.47-9.12c-0.73-1.01-1.59-1.8-2.56-2.38c-0.98-0.58-1.94-0.87-2.89-0.87
				C335.35,155.23,335.11,155.24,334.78,155.26z"/>
			<path fill="#FFFFFF" d="M356.08,154.3c1.26,0,2.37,0.5,3.33,1.51c1.24,1.28,1.86,3.13,1.86,5.55c0,2.13-0.52,3.84-1.57,5.14
				c-1,1.25-2.21,1.87-3.65,1.87c-1.53,0-2.81-0.72-3.84-2.15c-0.94-1.33-1.42-2.98-1.42-4.93c0-2.09,0.5-3.76,1.49-5
				C353.32,154.99,354.59,154.33,356.08,154.3z M355.81,155.42v11.86h0.25c1.11,0,2.04-0.4,2.79-1.19c1-1.07,1.49-2.68,1.49-4.83
				c0-1.75-0.37-3.15-1.1-4.19c-0.78-1.11-1.77-1.66-2.97-1.66C356.17,155.4,356.02,155.4,355.81,155.42z M367.07,157.92l-8.26,19.9
				l-0.38,0.91c-0.22,0.5-0.36,0.84-0.41,1.02c-0.26,0.75-0.54,1.13-0.83,1.13c-0.13,0-0.24-0.06-0.35-0.18
				c-0.1-0.12-0.16-0.25-0.16-0.41c0-0.13,0.15-0.55,0.46-1.26l0.36-0.89l0.39-0.92l8.73-21.03c0.41-1,0.66-1.57,0.75-1.74
				c0.1-0.16,0.23-0.24,0.39-0.24c0.12,0,0.22,0.06,0.32,0.18c0.1,0.12,0.15,0.25,0.15,0.4
				C368.25,154.98,367.86,156.02,367.07,157.92z M368.9,166.76c1.47,0,2.71,0.64,3.73,1.93c1.03,1.28,1.54,3.03,1.54,5.25
				c0,2.26-0.62,4.05-1.86,5.36c-0.95,1-2.06,1.49-3.3,1.49c-0.76,0-1.49-0.2-2.2-0.58c-0.71-0.39-1.31-0.92-1.78-1.59
				c-0.89-1.26-1.34-2.89-1.34-4.89c0-2.09,0.54-3.78,1.61-5.08C366.32,167.42,367.52,166.79,368.9,166.76z M368.71,167.86v11.8
				c0.18,0.01,0.31,0.02,0.41,0.02c1.14,0,2.08-0.46,2.8-1.38c0.87-1.11,1.31-2.64,1.31-4.59c0-1.75-0.37-3.14-1.12-4.17
				c-0.36-0.5-0.81-0.91-1.37-1.23c-0.56-0.31-1.1-0.47-1.62-0.47C369.04,167.84,368.9,167.85,368.71,167.86z"/>
		</g>
		<g>
			<path fill="#FFFFFF" d="M327.39,195.01v14.13l-0.02,1.35c0,0.87,0.09,1.46,0.27,1.74c0.18,0.29,0.55,0.43,1.1,0.43
				c1.39,0,2.75-0.51,4.09-1.53s2.43-2.39,3.28-4.11c0.26-0.52,0.51-0.78,0.76-0.78c0.18,0,0.34,0.1,0.49,0.29
				c0.15,0.19,0.22,0.39,0.22,0.6c0,0.51-0.34,1.22-1.02,2.15c-0.68,0.92-1.47,1.75-2.38,2.48c-1.84,1.48-3.82,2.22-5.92,2.22
				c-2.88,0-5.26-1.07-7.14-3.22c-2.14-2.41-3.21-5.36-3.21-8.86c0-3.61,1.13-6.61,3.38-9.01c1.89-2.03,4.22-3.05,7-3.05
				c2.21,0,4.14,0.63,5.8,1.88c0.7,0.53,1.28,1.11,1.73,1.72c0.45,0.61,0.67,1.13,0.67,1.55c0,0.21-0.06,0.39-0.19,0.54
				c-0.13,0.15-0.29,0.22-0.48,0.22c-0.25,0-0.56-0.34-0.93-1.01c-0.54-0.94-1.39-1.77-2.56-2.46c-1.16-0.7-2.26-1.05-3.3-1.05
				c-0.69,0-1.14,0.23-1.34,0.7C327.49,192.41,327.39,193.43,327.39,195.01z"/>
			<path fill="#FFFFFF" d="M353.66,189.85c1.89,0,3.68,0.63,5.38,1.88c1.56,1.15,2.76,2.73,3.58,4.74c0.73,1.76,1.09,3.63,1.09,5.6
				c0,1.35-0.21,2.72-0.64,4.08c-0.43,1.37-1.01,2.58-1.75,3.64c-1.04,1.45-2.3,2.54-3.79,3.28c-1.22,0.61-2.5,0.91-3.82,0.91
				c-2.22,0-4.22-0.79-5.99-2.37c-1.39-1.21-2.44-2.77-3.15-4.67c-0.6-1.61-0.9-3.31-0.9-5.1c0-3.5,1.06-6.4,3.17-8.71
				C348.81,190.99,351.09,189.9,353.66,189.85z M353.15,191.21l-0.05,21.34c0.36,0.03,0.62,0.04,0.76,0.04
				c1.63,0,3.2-0.55,4.69-1.65c1.43-1.07,2.51-2.5,3.23-4.28c0.56-1.41,0.84-2.96,0.84-4.66c0-3.4-1.04-6.16-3.14-8.27
				c-1.69-1.71-3.53-2.56-5.52-2.56C353.8,191.16,353.53,191.18,353.15,191.21z"/>
			<path fill="#FFFFFF" d="M376.44,212.64h0.36c1.77-0.01,3.03-0.07,3.8-0.19c0.25-0.05,0.45-0.08,0.59-0.08
				c0.21,0,0.31,0.13,0.31,0.4c0,0.3-0.11,0.48-0.34,0.56c-0.1,0.04-0.3,0.06-0.59,0.06h-11.06c1.16-1.67,2.13-3.13,2.91-4.38
				c0.79-1.25,1.61-2.64,2.47-4.16c0.94-1.68,1.6-2.94,1.98-3.77s0.57-1.44,0.57-1.85c0-0.48-0.15-0.83-0.45-1.06
				c-0.3-0.23-0.75-0.35-1.36-0.35c-0.6,0-1.22,0.12-1.86,0.36c-0.63,0.24-1.17,0.56-1.6,0.96c-0.42,0.38-0.76,0.84-1.01,1.39
				s-0.38,1.08-0.38,1.61c0,0.36,0.04,0.67,0.12,0.92c0.08,0.25,0.26,0.62,0.54,1.11c0.06,0.11,0.09,0.22,0.09,0.33
				c0,0.12-0.04,0.22-0.12,0.31s-0.16,0.13-0.25,0.13c-0.26,0-0.5-0.28-0.73-0.85c-0.23-0.57-0.34-1.16-0.34-1.8
				c0-0.87,0.22-1.7,0.66-2.49c0.5-0.9,1.21-1.58,2.12-2.06c0.91-0.48,1.97-0.72,3.17-0.72c1.31,0,2.43,0.27,3.36,0.82
				c0.69,0.4,1.23,0.98,1.61,1.75c0.31,0.63,0.47,1.34,0.47,2.13c0,0.62-0.09,1.24-0.28,1.87c-0.19,0.63-0.5,1.39-0.93,2.28
				c-0.77,1.55-1.66,3.17-2.68,4.85L376.44,212.64z"/>
		</g>
	</g>
	<path fill="#022C23" d="M349.67,116.03c-128.83,0-233.64,104.81-233.64,233.64c0,128.83,104.81,233.69,233.64,233.69
		c128.83,0,233.69-104.86,233.69-233.69C583.37,220.84,478.5,116.03,349.67,116.03z M349.67,124.51c45.68,0,88.3,13.68,123.86,37.2
		c61.05,40.31,101.36,109.5,101.36,187.96c0,124.2-101.02,225.22-225.21,225.22c-124.14,0-225.16-101.02-225.16-225.22
		c0-78.46,40.31-147.66,101.36-187.96C261.37,138.19,304,124.51,349.67,124.51z"/>
	<path fill="#022C23" d="M349.68,1.26c192.12,0,348.47,156.29,348.47,348.4c0,192.13-156.35,348.48-348.47,348.48
		c-192.13,0-348.42-156.35-348.42-348.48C1.26,157.55,157.55,1.26,349.68,1.26 M349.68,0C156.86,0,0,156.86,0,349.66
		C0,542.51,156.86,699.4,349.68,699.4c192.84,0,349.73-156.89,349.73-349.74C699.4,156.86,542.52,0,349.68,0L349.68,0z"/>
</g>
</svg>